<svg preserveAspectRatio="none" width="100%" height="100%" overflow="visible" style="display: block;" viewBox="0 0 30 30" fill="none" xmlns="http://www.w3.org/2000/svg">
<g id="Icon">
<path id="Vector" d="M13.76 3.51439C13.8136 3.2279 13.9656 2.96914 14.1898 2.78293C14.414 2.59672 14.6963 2.49479 14.9877 2.49479C15.2792 2.49479 15.5614 2.59672 15.7857 2.78293C16.0099 2.96914 16.1619 3.2279 16.2154 3.51439L17.528 10.4559C17.6212 10.9494 17.8611 11.4033 18.2162 11.7585C18.5713 12.1136 19.0253 12.3534 19.5188 12.4466L26.4603 13.7593C26.7468 13.8128 27.0055 13.9648 27.1917 14.189C27.3779 14.4132 27.4799 14.6955 27.4799 14.9869C27.4799 15.2784 27.3779 15.5607 27.1917 15.7849C27.0055 16.0091 26.7468 16.1611 26.4603 16.2146L19.5188 17.5272C19.0253 17.6205 18.5713 17.8603 18.2162 18.2154C17.8611 18.5706 17.6212 19.0245 17.528 19.518L16.2154 26.4595C16.1619 26.746 16.0099 27.0047 15.7857 27.1909C15.5614 27.3772 15.2792 27.4791 14.9877 27.4791C14.6963 27.4791 14.414 27.3772 14.1898 27.1909C13.9656 27.0047 13.8136 26.746 13.76 26.4595L12.4474 19.518C12.3542 19.0245 12.1144 18.5706 11.7592 18.2154C11.4041 17.8603 10.9502 17.6205 10.4567 17.5272L3.51518 16.2146C3.22868 16.1611 2.96992 16.0091 2.78371 15.7849C2.59751 15.5607 2.49557 15.2784 2.49557 14.9869C2.49557 14.6955 2.59751 14.4132 2.78371 14.189C2.96992 13.9648 3.22868 13.8128 3.51518 13.7593L10.4567 12.4466C10.9502 12.3534 11.4041 12.1136 11.7592 11.7585C12.1144 11.4033 12.3542 10.9494 12.4474 10.4559L13.76 3.51439Z" stroke="var(--stroke-0, white)" stroke-width="2.49783" stroke-linecap="round" stroke-linejoin="round"/>
<path id="Vector_2" d="M24.9785 2.49783V7.4935" stroke="var(--stroke-0, white)" stroke-width="2.49783" stroke-linecap="round" stroke-linejoin="round"/>
<path id="Vector_3" d="M27.4763 4.99567H22.4807" stroke="var(--stroke-0, white)" stroke-width="2.49783" stroke-linecap="round" stroke-linejoin="round"/>
<path id="Vector_4" d="M4.99584 27.4762C6.37536 27.4762 7.49368 26.3578 7.49368 24.9783C7.49368 23.5988 6.37536 22.4805 4.99584 22.4805C3.61633 22.4805 2.49801 23.5988 2.49801 24.9783C2.49801 26.3578 3.61633 27.4762 4.99584 27.4762Z" stroke="var(--stroke-0, white)" stroke-width="2.49783" stroke-linecap="round" stroke-linejoin="round"/>
</g>
</svg>
