<svg preserveAspectRatio="none" width="100%" height="100%" overflow="visible" style="display: block;" viewBox="0 0 30 30" fill="none" xmlns="http://www.w3.org/2000/svg">
<g id="Icon">
<path id="Vector" d="M24.9785 16.2359C24.9785 22.4804 20.6073 25.6027 15.4118 27.4137C15.1397 27.5058 14.8442 27.5014 14.575 27.4012C9.36705 25.6027 4.99584 22.4804 4.99584 16.2359V7.49345C4.99584 7.16221 5.12743 6.84455 5.36164 6.61033C5.59586 6.37611 5.91353 6.24453 6.24476 6.24453C8.74259 6.24453 11.8649 4.74583 14.038 2.84748C14.3026 2.62142 14.6392 2.49722 14.9872 2.49722C15.3352 2.49722 15.6718 2.62142 15.9363 2.84748C18.122 4.75832 21.2318 6.24453 23.7296 6.24453C24.0608 6.24453 24.3785 6.37611 24.6127 6.61033C24.8469 6.84455 24.9785 7.16221 24.9785 7.49345V16.2359Z" stroke="var(--stroke-0, white)" stroke-width="2.49783" stroke-linecap="round" stroke-linejoin="round"/>
</g>
</svg>
