<svg preserveAspectRatio="none" width="100%" height="100%" overflow="visible" style="display: block;" viewBox="0 0 30 30" fill="none" xmlns="http://www.w3.org/2000/svg">
<g id="Icon">
<path id="Vector" d="M19.983 26.2272V23.7294C19.983 22.4045 19.4567 21.1338 18.5198 20.1969C17.5829 19.2601 16.3123 18.7337 14.9873 18.7337H7.49383C6.1689 18.7337 4.89823 19.2601 3.96136 20.1969C3.02449 21.1338 2.49817 22.4045 2.49817 23.7294V26.2272" stroke="var(--stroke-0, white)" stroke-width="2.49783" stroke-linecap="round" stroke-linejoin="round"/>
<path id="Vector_2" d="M19.983 3.90668C21.0543 4.1844 22.003 4.80997 22.6802 5.68521C23.3575 6.56045 23.725 7.6358 23.725 8.74248C23.725 9.84916 23.3575 10.9245 22.6802 11.7997C22.003 12.675 21.0543 13.3006 19.983 13.5783" stroke="var(--stroke-0, white)" stroke-width="2.49783" stroke-linecap="round" stroke-linejoin="round"/>
<path id="Vector_3" d="M27.4765 26.2272V23.7294C27.4757 22.6225 27.1072 21.5473 26.4291 20.6725C25.751 19.7976 24.8015 19.1728 23.7297 18.8961" stroke="var(--stroke-0, white)" stroke-width="2.49783" stroke-linecap="round" stroke-linejoin="round"/>
<path id="Vector_4" d="M11.2406 13.7381C13.9996 13.7381 16.2362 11.5014 16.2362 8.74241C16.2362 5.98338 13.9996 3.74675 11.2406 3.74675C8.48155 3.74675 6.24491 5.98338 6.24491 8.74241C6.24491 11.5014 8.48155 13.7381 11.2406 13.7381Z" stroke="var(--stroke-0, white)" stroke-width="2.49783" stroke-linecap="round" stroke-linejoin="round"/>
</g>
</svg>
