<svg preserveAspectRatio="none" width="100%" height="100%" overflow="visible" style="display: block;" viewBox="0 0 25 25" fill="none" xmlns="http://www.w3.org/2000/svg">
<g id="Icon">
<path id="Vector" d="M11.4663 2.92862C11.5109 2.68987 11.6376 2.47424 11.8244 2.31906C12.0113 2.16389 12.2465 2.07894 12.4894 2.07894C12.7323 2.07894 12.9675 2.16389 13.1543 2.31906C13.3412 2.47424 13.4679 2.68987 13.5124 2.92862L14.6063 8.71318C14.684 9.12444 14.8838 9.50272 15.1798 9.79867C15.4757 10.0946 15.854 10.2945 16.2653 10.3722L22.0498 11.466C22.2886 11.5106 22.5042 11.6373 22.6594 11.8241C22.8146 12.011 22.8995 12.2462 22.8995 12.4891C22.8995 12.7319 22.8146 12.9672 22.6594 13.154C22.5042 13.3409 22.2886 13.4675 22.0498 13.5121L16.2653 14.606C15.854 14.6837 15.4757 14.8835 15.1798 15.1795C14.8838 15.4754 14.684 15.8537 14.6063 16.265L13.5124 22.0495C13.4679 22.2883 13.3412 22.5039 13.1543 22.6591C12.9675 22.8142 12.7323 22.8992 12.4894 22.8992C12.2465 22.8992 12.0113 22.8142 11.8244 22.6591C11.6376 22.5039 11.5109 22.2883 11.4663 22.0495L10.3725 16.265C10.2948 15.8537 10.0949 15.4754 9.79898 15.1795C9.50303 14.8835 9.12475 14.6837 8.71349 14.606L2.92893 13.5121C2.69018 13.4675 2.47455 13.3409 2.31937 13.154C2.1642 12.9672 2.07925 12.7319 2.07925 12.4891C2.07925 12.2462 2.1642 12.011 2.31937 11.8241C2.47455 11.6373 2.69018 11.5106 2.92893 11.466L8.71349 10.3722C9.12475 10.2945 9.50303 10.0946 9.79898 9.79867C10.0949 9.50272 10.2948 9.12444 10.3725 8.71318L11.4663 2.92862Z" stroke="var(--stroke-0, #18181B)" stroke-width="2.08153" stroke-linecap="round" stroke-linejoin="round"/>
<path id="Vector_2" d="M20.8154 2.08169V6.24474" stroke="var(--stroke-0, #18181B)" stroke-width="2.08153" stroke-linecap="round" stroke-linejoin="round"/>
<path id="Vector_3" d="M22.8966 4.16301H18.7335" stroke="var(--stroke-0, #18181B)" stroke-width="2.08153" stroke-linecap="round" stroke-linejoin="round"/>
<path id="Vector_4" d="M4.16322 22.8969C5.31282 22.8969 6.24475 21.9649 6.24475 20.8153C6.24475 19.6657 5.31282 18.7338 4.16322 18.7338C3.01363 18.7338 2.08169 19.6657 2.08169 20.8153C2.08169 21.9649 3.01363 22.8969 4.16322 22.8969Z" stroke="var(--stroke-0, #18181B)" stroke-width="2.08153" stroke-linecap="round" stroke-linejoin="round"/>
</g>
</svg>
