<svg preserveAspectRatio="none" width="100%" height="100%" overflow="visible" style="display: block;" viewBox="0 0 25 25" fill="none" xmlns="http://www.w3.org/2000/svg">
<g id="Icon">
<path id="Vector" d="M11.4667 2.9287C11.5113 2.68995 11.638 2.47432 11.8249 2.31914C12.0117 2.16397 12.2469 2.07902 12.4898 2.07902C12.7327 2.07902 12.9679 2.16397 13.1548 2.31914C13.3416 2.47432 13.4683 2.68995 13.5129 2.9287L14.6067 8.71326C14.6844 9.12452 14.8843 9.5028 15.1802 9.79875C15.4762 10.0947 15.8545 10.2945 16.2657 10.3722L22.0503 11.4661C22.289 11.5107 22.5047 11.6374 22.6598 11.8242C22.815 12.011 22.8999 12.2463 22.8999 12.4891C22.8999 12.732 22.815 12.9673 22.6598 13.1541C22.5047 13.3409 22.289 13.4676 22.0503 13.5122L16.2657 14.6061C15.8545 14.6838 15.4762 14.8836 15.1802 15.1796C14.8843 15.4755 14.6844 15.8538 14.6067 16.265L13.5129 22.0496C13.4683 22.2883 13.3416 22.504 13.1548 22.6592C12.9679 22.8143 12.7327 22.8993 12.4898 22.8993C12.2469 22.8993 12.0117 22.8143 11.8249 22.6592C11.638 22.504 11.5113 22.2883 11.4667 22.0496L10.3729 16.265C10.2952 15.8538 10.0954 15.4755 9.79942 15.1796C9.50347 14.8836 9.12519 14.6838 8.71393 14.6061L2.92937 13.5122C2.69062 13.4676 2.47499 13.3409 2.31981 13.1541C2.16464 12.9673 2.07969 12.732 2.07969 12.4891C2.07969 12.2463 2.16464 12.011 2.31981 11.8242C2.47499 11.6374 2.69062 11.5107 2.92937 11.4661L8.71393 10.3722C9.12519 10.2945 9.50347 10.0947 9.79942 9.79875C10.0954 9.5028 10.2952 9.12452 10.3729 8.71326L11.4667 2.9287Z" stroke="var(--stroke-0, #FAFAFA)" stroke-width="2.08153" stroke-linecap="round" stroke-linejoin="round"/>
<path id="Vector_2" d="M20.8159 2.08154V6.24459" stroke="var(--stroke-0, #FAFAFA)" stroke-width="2.08153" stroke-linecap="round" stroke-linejoin="round"/>
<path id="Vector_3" d="M22.897 4.16302H18.7339" stroke="var(--stroke-0, #FAFAFA)" stroke-width="2.08153" stroke-linecap="round" stroke-linejoin="round"/>
<path id="Vector_4" d="M4.16366 22.8968C5.31326 22.8968 6.24519 21.9648 6.24519 20.8153C6.24519 19.6657 5.31326 18.7337 4.16366 18.7337C3.01406 18.7337 2.08213 19.6657 2.08213 20.8153C2.08213 21.9648 3.01406 22.8968 4.16366 22.8968Z" stroke="var(--stroke-0, #FAFAFA)" stroke-width="2.08153" stroke-linecap="round" stroke-linejoin="round"/>
</g>
</svg>
