<svg preserveAspectRatio="none" width="100%" height="100%" overflow="visible" style="display: block;" viewBox="0 0 30 30" fill="none" xmlns="http://www.w3.org/2000/svg">
<g id="Icon">
<path id="Vector" d="M23.7292 13.7381H6.2444M23.7292 13.7381C24.3917 13.7381 25.027 14.0012 25.4955 14.4697C25.9639 14.9381 26.2271 15.5734 26.2271 16.2359V23.7294C26.2271 24.3919 25.9639 25.0272 25.4955 25.4956C25.027 25.9641 24.3917 26.2272 23.7292 26.2272H6.2444C5.58193 26.2272 4.9466 25.9641 4.47816 25.4956C4.00973 25.0272 3.74656 24.3919 3.74656 23.7294V16.2359C3.74656 15.5734 4.00973 14.9381 4.47816 14.4697C4.9466 14.0012 5.58193 13.7381 6.2444 13.7381M23.7292 13.7381V11.2402C23.7292 10.5778 23.4661 9.94244 22.9976 9.47401C22.5292 9.00557 21.8939 8.74241 21.2314 8.74241M6.2444 13.7381V11.2402C6.2444 10.5778 6.50756 9.94244 6.97599 9.47401C7.44443 9.00557 8.07976 8.74241 8.74223 8.74241M21.2314 8.74241V6.24458C21.2314 5.58211 20.9682 4.94678 20.4998 4.47835C20.0314 4.00991 19.396 3.74675 18.7336 3.74675H11.2401C10.5776 3.74675 9.94226 4.00991 9.47383 4.47835C9.00539 4.94678 8.74223 5.58211 8.74223 6.24458V8.74241M21.2314 8.74241H8.74223" stroke="var(--stroke-0, white)" stroke-width="2.49783" stroke-linecap="round" stroke-linejoin="round"/>
</g>
</svg>
