<svg preserveAspectRatio="none" width="100%" height="100%" overflow="visible" style="display: block;" viewBox="0 0 30 30" fill="none" xmlns="http://www.w3.org/2000/svg">
<g id="Icon">
<path id="Vector" d="M11.2404 14.987H18.7339M11.2404 19.9827H18.7339M21.2318 26.2272H8.74259C8.08013 26.2272 7.44479 25.9641 6.97636 25.4956C6.50792 25.0272 6.24476 24.3919 6.24476 23.7294V6.24458C6.24476 5.58212 6.50792 4.94678 6.97636 4.47835C7.44479 4.00991 8.08013 3.74675 8.74259 3.74675H15.719C16.0502 3.74682 16.3679 3.87845 16.602 4.11268L23.3637 10.8743C23.5979 11.1085 23.7295 11.4261 23.7296 11.7573V23.7294C23.7296 24.3919 23.4664 25.0272 22.998 25.4956C22.5295 25.9641 21.8942 26.2272 21.2318 26.2272Z" stroke="var(--stroke-0, white)" stroke-width="2.49783" stroke-linecap="round" stroke-linejoin="round"/>
</g>
</svg>
