<svg preserveAspectRatio="none" width="100%" height="100%" overflow="visible" style="display: block;" viewBox="0 0 30 30" fill="none" xmlns="http://www.w3.org/2000/svg">
<g id="Icon">
<path id="Vector" d="M11.24 6.24458H8.74219C8.07973 6.24458 7.4444 6.50775 6.97596 6.97618C6.50753 7.44461 6.24436 8.07995 6.24436 8.74241V23.7294C6.24436 24.3919 6.50753 25.0272 6.97596 25.4956C7.4444 25.9641 8.07973 26.2272 8.74219 26.2272H21.2314C21.8938 26.2272 22.5292 25.9641 22.9976 25.4956C23.466 25.0272 23.7292 24.3919 23.7292 23.7294V8.74241C23.7292 8.07995 23.466 7.44461 22.9976 6.97618C22.5292 6.50775 21.8938 6.24458 21.2314 6.24458H18.7335M11.24 6.24458C11.24 6.90705 11.5032 7.54238 11.9716 8.01082C12.4401 8.47925 13.0754 8.74241 13.7379 8.74241H16.2357C16.8982 8.74241 17.5335 8.47925 18.0019 8.01082C18.4704 7.54238 18.7335 6.90705 18.7335 6.24458M11.24 6.24458C11.24 5.58212 11.5032 4.94678 11.9716 4.47835C12.4401 4.00991 13.0754 3.74675 13.7379 3.74675H16.2357C16.8982 3.74675 17.5335 4.00991 18.0019 4.47835C18.4704 4.94678 18.7335 5.58212 18.7335 6.24458" stroke="var(--stroke-0, white)" stroke-width="2.49783" stroke-linecap="round" stroke-linejoin="round"/>
</g>
</svg>
