<svg preserveAspectRatio="none" width="100%" height="100%" overflow="visible" style="display: block;" viewBox="0 0 24 24" fill="none" xmlns="http://www.w3.org/2000/svg">
<path id="Vector" d="M11.3871 2.84967C11.4316 2.61093 11.5583 2.39529 11.7452 2.24012C11.932 2.08494 12.1672 2 12.4101 2C12.653 2 12.8882 2.08494 13.0751 2.24012C13.2619 2.39529 13.3886 2.61093 13.4332 2.84967L14.527 8.63424C14.6047 9.04549 14.8046 9.42378 15.1005 9.71972C15.3965 10.0157 15.7748 10.2155 16.186 10.2932L21.9706 11.3871C22.2093 11.4316 22.425 11.5583 22.5801 11.7452C22.7353 11.932 22.8202 12.1672 22.8202 12.4101C22.8202 12.653 22.7353 12.8882 22.5801 13.0751C22.425 13.2619 22.2093 13.3886 21.9706 13.4332L16.186 14.527C15.7748 14.6047 15.3965 14.8046 15.1005 15.1005C14.8046 15.3965 14.6047 15.7748 14.527 16.186L13.4332 21.9706C13.3886 22.2093 13.2619 22.425 13.0751 22.5801C12.8882 22.7353 12.653 22.8202 12.4101 22.8202C12.1672 22.8202 11.932 22.7353 11.7452 22.5801C11.5583 22.425 11.4316 22.2093 11.3871 21.9706L10.2932 16.186C10.2155 15.7748 10.0157 15.3965 9.71972 15.1005C9.42378 14.8046 9.04549 14.6047 8.63424 14.527L2.84967 13.4332C2.61093 13.3886 2.39529 13.2619 2.24012 13.0751C2.08494 12.8882 2 12.653 2 12.4101C2 12.1672 2.08494 11.932 2.24012 11.7452C2.39529 11.5583 2.61093 11.4316 2.84967 11.3871L8.63424 10.2932C9.04549 10.2155 9.42378 10.0157 9.71972 9.71972C10.0157 9.42378 10.2155 9.04549 10.2932 8.63424L11.3871 2.84967Z" stroke="var(--stroke-0, white)" stroke-width="2.08153" stroke-linecap="round" stroke-linejoin="round"/>
</svg>
