<svg preserveAspectRatio="none" width="100%" height="100%" overflow="visible" style="display: block;" viewBox="0 0 20 20" fill="none" xmlns="http://www.w3.org/2000/svg">
<path id="Vector (Stroke)" fill-rule="evenodd" clip-rule="evenodd" d="M3.21964 0.0768607C3.99556 -0.0774802 4.79983 0.00173315 5.53074 0.304484C6.26164 0.607234 6.88635 1.11992 7.32588 1.77772C7.76541 2.43552 8 3.20888 8 4V6H12V4C12 3.20888 12.2346 2.43552 12.6741 1.77772C13.1136 1.11992 13.7384 0.607234 14.4693 0.304484C15.2002 0.00173309 16.0044 -0.0774802 16.7804 0.0768607C17.5563 0.231202 18.269 0.612165 18.8284 1.17157C19.3878 1.73098 19.7688 2.44372 19.9231 3.21964C20.0775 3.99556 19.9983 4.79983 19.6955 5.53074C19.3928 6.26164 18.8801 6.88635 18.2223 7.32588C17.5645 7.76541 16.7911 8 16 8H14V12H16C16.7911 12 17.5645 12.2346 18.2223 12.6741C18.8801 13.1136 19.3928 13.7384 19.6955 14.4693C19.9983 15.2002 20.0775 16.0044 19.9231 16.7804C19.7688 17.5563 19.3878 18.269 18.8284 18.8284C18.269 19.3878 17.5563 19.7688 16.7804 19.9231C16.0044 20.0775 15.2002 19.9983 14.4693 19.6955C13.7384 19.3928 13.1136 18.8801 12.6741 18.2223C12.2346 17.5645 12 16.7911 12 16V14H8V16C8 16.7911 7.76541 17.5645 7.32588 18.2223C6.88635 18.8801 6.26164 19.3928 5.53074 19.6955C4.79983 19.9983 3.99556 20.0775 3.21964 19.9231C2.44372 19.7688 1.73098 19.3878 1.17157 18.8284C0.612165 18.269 0.231202 17.5563 0.0768607 16.7804C-0.0774802 16.0044 0.00173309 15.2002 0.304484 14.4693C0.607234 13.7384 1.11992 13.1136 1.77772 12.6741C2.43552 12.2346 3.20888 12 4 12H6V8H4C3.20888 8 2.43552 7.76541 1.77772 7.32588C1.11992 6.88635 0.607234 6.26164 0.304484 5.53074C0.00173315 4.79983 -0.0774802 3.99556 0.0768607 3.21964C0.231202 2.44372 0.612165 1.73098 1.17157 1.17157C1.73098 0.612165 2.44372 0.231202 3.21964 0.0768607ZM6 6V4C6 3.60444 5.8827 3.21776 5.66294 2.88886C5.44318 2.55996 5.13082 2.30362 4.76537 2.15224C4.39992 2.00087 3.99778 1.96126 3.60982 2.03843C3.22186 2.1156 2.86549 2.30608 2.58579 2.58579C2.30608 2.86549 2.1156 3.22186 2.03843 3.60982C1.96126 3.99778 2.00087 4.39992 2.15224 4.76537C2.30362 5.13082 2.55996 5.44318 2.88886 5.66294C3.21776 5.8827 3.60444 6 4 6H6ZM8 8V12H12V8H8ZM6 14H4C3.60444 14 3.21776 14.1173 2.88886 14.3371C2.55996 14.5568 2.30362 14.8692 2.15224 15.2346C2.00087 15.6001 1.96126 16.0022 2.03843 16.3902C2.1156 16.7781 2.30608 17.1345 2.58579 17.4142C2.86549 17.6939 3.22186 17.8844 3.60982 17.9616C3.99778 18.0387 4.39992 17.9991 4.76537 17.8478C5.13082 17.6964 5.44318 17.44 5.66294 17.1111C5.8827 16.7822 6 16.3956 6 16V14ZM14 14V16C14 16.3956 14.1173 16.7822 14.3371 17.1111C14.5568 17.44 14.8692 17.6964 15.2346 17.8478C15.6001 17.9991 16.0022 18.0387 16.3902 17.9616C16.7781 17.8844 17.1345 17.6939 17.4142 17.4142C17.6939 17.1345 17.8844 16.7781 17.9616 16.3902C18.0387 16.0022 17.9991 15.6001 17.8478 15.2346C17.6964 14.8692 17.44 14.5568 17.1111 14.3371C16.7822 14.1173 16.3956 14 16 14H14ZM14 6H16C16.3956 6 16.7822 5.8827 17.1111 5.66294C17.44 5.44318 17.6964 5.13082 17.8478 4.76537C17.9991 4.39992 18.0387 3.99778 17.9616 3.60982C17.8844 3.22186 17.6939 2.86549 17.4142 2.58579C17.1345 2.30608 16.7781 2.1156 16.3902 2.03843C16.0022 1.96126 15.6001 2.00087 15.2346 2.15224C14.8692 2.30362 14.5568 2.55996 14.3371 2.88886C14.1173 3.21776 14 3.60444 14 4V6Z" fill="var(--fill-0, #FAFAFA)"/>
</svg>
